# AST/ASF file generated using VICON BodyLanguage
# -----------------------------------------------
:version 1.10
:name VICON
:units
  mass 1.0
  length 0.45
  angle deg
:documentation
   .ast/.asf automatically generated from VICON data using
   VICON BodyBuilder and BodyLanguage model FoxedUp or BRILLIANT.MOD
:root
   order TX TY TZ RX RY RZ
   axis XYZ
   position 0 0 0  
   orientation 0 0 0 
:bonedata
  begin
     id 1 
     name lhipjoint
     direction 0.602128 -0.715006 0.355257 
     length 2.21237 
     axis 0 0 0  XYZ
  end
  begin
     id 2 
     name lfemur
     direction 0.34202 -0.939693 0  
     length 6.71649  
     axis 0 0 20  XYZ
    dof rx ry rz
    limits (-160.0 20.0)
           (-70.0 70.0)
           (-60.0 70.0)
  end
  begin
     id 3 
     name ltibia
     direction 0.34202 -0.939693 0   
     length 6.97123   
     axis 0 0 20   XYZ
    dof rx
    limits (-10.0 170.0)
  end
  begin
     id 4 
     name lfoot
     direction 0.0655697 -0.180151 0.981451   
     length 1.80924   
     axis -90 7.62852e-016 20   XYZ
    dof rx rz
    limits (-45.0 90.0)
           (-70.0 20.0)
  end
  begin
     id 5 
     name ltoes
     direction 1.53545e-011 -4.21827e-011 1   
     length 0.916331   
     axis -90 7.62852e-016 20   XYZ
    dof rx
    limits (-90.0 20.0)
  end
  begin
     id 6 
     name rhipjoint
     direction -0.625414 -0.698792 0.347201   
     length 2.2637  
     axis 0 0 0  XYZ 
  end
  begin
     id 7 
     name rfemur
     direction -0.34202 -0.939693 0   
     length 7.07595   
     axis 0 0 -20   XYZ
    dof rx ry rz
    limits (-160.0 20.0)
           (-70.0 70.0)
           (-70.0 60.0)
  end
  begin
     id 8 
     name rtibia
     direction -0.34202 -0.939693 0   
     length 7.22924   
     axis 0 0 -20   XYZ
    dof rx
    limits (-10.0 170.0)
 end
 begin
     id 9 
     name rfoot
     direction -0.0766747 -0.210662 0.974547   
     length 1.98482  
     axis -90 -7.62852e-016 -20   XYZ
    dof rx rz
    limits (-45.0 90.0)
           (-20.0 70.0)
  end
  begin
     id 10 
     name rtoes
     direction -1.53532e-011 -4.21867e-011 1   
     length 0.999842   
     axis -90 -7.62852e-016 -20   XYZ
    dof rx
    limits (-90.0 20.0)
  end
  begin
     id 11 
     name lowerback
     direction -0.0224668 0.997354 -0.0691422   
     length 2.09945   
     axis 0 0 0   XYZ
    dof rx ry rz
    limits (-20.0 45.0)
           (-30.0 30.0)
           (-30.0 30.0)
  end
  begin
     id 12 
     name upperback
     direction 0.0134698 0.998451 -0.0539888   
     length 2.09758   
     axis 0 0 0   XYZ
    dof rx ry rz
    limits (-20.0 45.0)
           (-30.0 30.0)
           (-30.0 30.0)
  end
  begin
     id 13 
     name thorax
     direction 0.0241905 0.99948 -0.0213333   
     length 2.10428   
     axis 0 0 0   XYZ
    dof rx ry rz
    limits (-20.0 45.0)
           (-30.0 30.0)
           (-30.0 30.0)
  end
  begin
     id 14 
     name lowerneck
     direction -0.00866847 0.995978 0.0891737   
     length 1.3959   
     axis 0 0 0   XYZ
    dof rx ry rz
    limits (-20.0 45.0)
           (-30.0 30.0)
           (-30.0 30.0)
  end
  begin
     id 15 
     name upperneck
     direction 0.0680679 0.992203 0.104404   
     length 1.39452   
     axis 0 0 0   XYZ
    dof rx ry rz
    limits (-20.0 45.0)
           (-30.0 30.0)
           (-30.0 30.0)
  end
  begin
     id 16
     name head
     direction 0.0242216 0.999358 0.0264054  
     length 1.40433  
     axis 0 0 0   XYZ
    dof rx ry rz
    limits (-20.0 45.0)
           (-30.0 30.0)
           (-30.0 30.0)
  end
  begin
     id 17 
     name lclavicle
     direction 0.929368 0.362991 -0.0671771  
     length 3.04887  
     axis 0 0 0   XYZ
    dof ry rz
    limits (-20.0 10.0)
           (0.0 20.0)
  end
  begin
     id 18 
     name lhumerus
     direction 1 -4.48967e-011 -7.13741e-028   
     length 4.77195   
     axis -180 -30 -90   XYZ
    dof rx ry rz
    limits (-60.0 90.0)
           (-90.0 90.0)
           (-90.0 90.0)
  end
  begin
     id 19
     name lradius
     direction 1 -4.48977e-011 3.60404e-027   
     length 2.98444   
     axis -180 -30 -90   XYZ
    dof rx
    limits (-10.0 170.0)
  end
  begin
     id 20
     name lwrist
     direction 1 -4.48997e-011 7.54877e-027   
     length 1.49222   
     axis -7.18178e-015 90 90   XYZ
    dof ry
    limits (-180.0 0.0)
 end
  begin
     id 21 
     name lhand
     direction 1 -4.489e-011 1.51105e-026   
     length 0.992285   
     axis -9.63605e-015 90 90   XYZ
    dof rx rz
    limits (-90.0 90.0)
           (-45.0 45.0)
  end
  begin
     id 22 
     name lfingers
     direction 1 -4.48998e-011 3.01948e-026   
     length 0.800006   
     axis -1.92718e-014 90 90   XYZ
    dof rx
    limits (0.0 90.0)
  end
  begin
     id 23
     name lthumb
     direction 0.707107 -6.34881e-011 0.707107   
     length 1.14865   
     axis -90 45 -3.53137e-014   XYZ
    dof rx rz
    limits (-45.0 45.0)
           (-45.0 45.0)
  end
  begin
     id 24 
     name rclavicle
     direction -0.945672 0.324529 0.0196374   
     length 3.4236  
     axis 0 0 0   XYZ 
    dof ry rz
    limits (-10.0 20.0)
           (-20.0 0.0)
  end
  begin
     id 25 
     name rhumerus
     direction -1 -4.4896e-011 1.02757e-029  
     length 4.62052   
     axis -180 30 90   XYZ
    dof rx ry rz
    limits (-90.0 60.0)
           (-90.0 90.0)
           (-90.0 90.0)
  end
  begin
     id 26 
     name rradius
     direction -1 -4.48982e-011 3.85962e-027   
     length 2.95332   
     axis -180 30 90   XYZ
    dof rx
    limits (-10.0 170.0)
  end
  begin
     id 27 
     name rwrist
     direction -1 -4.48961e-011 7.55118e-027   
     length 1.47666   
     axis -7.18178e-015 -90 -90   XYZ
    dof ry
    limits (-180.0 0.0)
  end
  begin
     id 28
     name rhand
     direction -1 -4.48984e-011 1.50994e-026   
     length 0.990956   
     axis -9.63605e-015 -90 -90   XYZ
    dof rx rz
    limits (-90.0 90.0)
           (-45.0 45.0)
  end
  begin
     id 29
     name rfingers
     direction -1 -4.4892e-011 3.02158e-026   
     length 0.798934   
     axis -1.92718e-014 -90 -90   XYZ
    dof rx
    limits (0.0 90.0)
  end
  begin
     id 30
     name rthumb
     direction -0.707107 -6.34916e-011 0.707107   
     length 1.14711   
     axis -90 -45 3.53137e-014   XYZ
    dof rx rz
    limits (-45.0 45.0)
           (-45.0 45.0)
  end
:hierarchy
  begin
    root lhipjoint rhipjoint lowerback
    lhipjoint lfemur
    lfemur ltibia
    ltibia lfoot
    lfoot ltoes
    rhipjoint rfemur
    rfemur rtibia
    rtibia rfoot
    rfoot rtoes
    lowerback upperback
    upperback thorax
    thorax lowerneck lclavicle rclavicle
    lowerneck upperneck
    upperneck head
    lclavicle lhumerus
    lhumerus lradius
    lradius lwrist
    lwrist lhand lthumb
    lhand lfingers
    rclavicle rhumerus
    rhumerus rradius
    rradius rwrist
    rwrist rhand rthumb
    rhand rfingers
  end

#!OML:ASF H:\ManfredObstacles\Project 1\Capture day 1\Session 1\Male.ASF
:FULLY-SPECIFIED
:DEGREES
376
root 5.96414 15.1151 5.62634 -147.373 -15.1142 -180.72
lowerback 17.7305 -0.0472335 -2.76801
upperback 9.98322 -1.9896 0.584342
thorax 0.850353 -1.72261 2.49651
lowerneck 7.25324 -2.54328 -5.13516
upperneck -21.5261 -1.81895 19.6064
head -7.46367 -3.02335 7.77713
rclavicle 3.45885e-014 3.22031e-014
rhumerus -17.9389 -11.4222 -87.6375
rradius 47.8995
rwrist 14.9393
rhand 0.813607 -2.20841
rfingers 7.12502
rthumb 26.3694 -30.3949
lclavicle 3.45885e-014 3.22031e-014
lhumerus -3.83333 -1.06527 83.5773
lradius 36.0922
lwrist -12.8527
lhand -18.6958 8.80778
lfingers 7.12502
lthumb 7.59874 38.6513
rfemur -63.101 1.28531 24.7732
rtibia 60.6378
rfoot -31.627 7.90025
rtoes 23.5723
lfemur -78.321 -7.81454 -12.4756
ltibia 47.0208
lfoot -1.95 -6.75093
ltoes 4.2181
377
root 5.91815 15.1724 5.48953 -147.831 -14.7229 -180.628
lowerback 17.3325 -0.0714932 -3.08754
upperback 9.83987 -2.01783 0.580325
thorax 0.913687 -1.73491 2.66695
lowerneck 7.24639 -2.46784 -5.30491
upperneck -21.339 -1.77247 19.51
head -7.40575 -2.96127 7.7553
rclavicle 1.11319e-014 4.1546e-014
rhumerus -18.1595 -11.1375 -87.606
rradius 47.504
rwrist 15.1529
rhand 0.698441 -2.08872
rfingers 7.12502
rthumb 26.2592 -30.2916
lclavicle 1.11319e-014 4.1546e-014
lhumerus -5.00609 -0.317351 83.4809
lradius 35.5032
lwrist -13.4419
lhand -18.7592 8.6386
lfingers 7.12502
lthumb 7.5376 38.4843
rfemur -61.5123 1.24466 24.8232
rtibia 59.7444
rfoot -31.7944 8.22508
rtoes 23.4458
lfemur -77.161 -8.03771 -12.2494
ltibia 44.7292
lfoot 0.00184752 -7.3361
ltoes 4.22988
378
root 5.8685 15.2345 5.34709 -148.381 -14.2942 -180.634
lowerback 16.9245 -0.0957818 -3.41654
upperback 9.84103 -2.0769 0.474198
thorax 1.13713 -1.77718 2.73428
lowerneck 7.30972 -2.30296 -5.40922
upperneck -21.3194 -1.58326 19.4423
head -7.43788 -2.86058 7.741
rclavicle 5.56597e-015 8.74653e-015
rhumerus -18.1558 -10.9038 -87.7284
rradius 47.1446
rwrist 15.1967
rhand 0.609584 -2.28323
rfingers 7.12502
rthumb 26.1741 -30.4988
lclavicle 5.56597e-015 8.74653e-015
lhumerus -5.91744 0.251555 83.242
lradius 34.833
lwrist -13.809
lhand -18.8641 8.70394
lfingers 7.12502
lthumb 7.43629 38.5532
rfemur -59.7289 1.20383 24.7312
rtibia 58.7879
rfoot -31.9891 8.57025
rtoes 23.7585
lfemur -75.7262 -8.36725 -12.0968
ltibia 42.6
lfoot 2.08935 -7.60414
ltoes 4.69341
379
root 5.81898 15.2932 5.19925 -148.906 -13.7269 -180.506
lowerback 16.428 0.205601 -3.36947
upperback 10.038 -1.68323 0.379829
thorax 1.57257 -1.59841 2.52707
lowerneck 7.18156 -2.32984 -5.88864
upperneck -21.7587 -1.64665 19.605
head -7.53325 -2.90013 7.91978
rclavicle 2.5842e-014 4.35338e-014
rhumerus -17.7899 -11.6487 -87.5735
rradius 46.8577
rwrist 15.3386
rhand 0.704836 -2.35089
rfingers 7.12502
rthumb 26.2653 -30.5529
lclavicle 2.5842e-014 4.35338e-014
lhumerus -6.03869 -0.0460168 83.3382
lradius 33.8631
lwrist -14.1413
lhand -18.7881 8.8685
lfingers 7.12502
lthumb 7.50973 38.7152
rfemur -57.9819 1.43048 24.6395
rtibia 57.7952
rfoot -32.0286 8.76747
rtoes 23.8288
lfemur -74.2108 -8.6543 -11.6804
ltibia 40.6845
lfoot 3.9047 -7.72082
ltoes 4.39401
380
root 5.76736 15.3408 5.03908 -149.318 -13.1686 -180.201
lowerback 15.8321 0.31279 -3.48043
upperback 9.85248 -1.47829 0.29246
thorax 1.66956 -1.47618 2.45643
lowerneck 5.83832 -2.84452 -5.64059
upperneck -20.5148 -2.47211 19.3902
head -6.76668 -3.15671 7.68986
rclavicle -3.45885e-014 -1.15295e-014
rhumerus -18.1298 -11.9332 -87.5428
rradius 46.5436
rwrist 15.7057
rhand 0.856356 -2.26092
rfingers 7.12502
rthumb 26.4104 -30.4412
lclavicle -3.45885e-014 -1.15295e-014
lhumerus -6.9366 0.229074 83.1813
lradius 32.829
lwrist -14.815
lhand -18.6483 8.92956
lfingers 7.12502
lthumb 7.64466 38.7714
rfemur -56.3991 1.72516 24.7512
rtibia 56.8028
rfoot -32.1304 8.73873
rtoes 22.8959
lfemur -72.7141 -8.94977 -10.9388
ltibia 38.9927
lfoot 6.24486 -7.48017
ltoes 5.90211
